<?xml version="1.0" encoding="UTF-8" standalone="no"?>
<!-- Created with Inkscape (http://www.inkscape.org/) -->

<svg
   width="81.950111mm"
   height="11.650141mm"
   viewBox="0 0 81.950112 11.650141"
   version="1.1"
   id="svg5"
   inkscape:version="1.2 (dc2aeda, 2022-05-15)"
   sodipodi:docname="title.svg"
   xmlns:inkscape="http://www.inkscape.org/namespaces/inkscape"
   xmlns:sodipodi="http://sodipodi.sourceforge.net/DTD/sodipodi-0.dtd"
   xmlns:xlink="http://www.w3.org/1999/xlink"
   xmlns="http://www.w3.org/2000/svg"
   xmlns:svg="http://www.w3.org/2000/svg"
   xmlns:rdf="http://www.w3.org/1999/02/22-rdf-syntax-ns#"
   xmlns:cc="http://creativecommons.org/ns#"
   xmlns:dc="http://purl.org/dc/elements/1.1/">
  <title
     id="title6211">Logo Follow the Light</title>
  <sodipodi:namedview
     id="namedview7"
     pagecolor="#ffffff"
     bordercolor="#000000"
     borderopacity="0.25"
     inkscape:showpageshadow="false"
     inkscape:pageopacity="0.0"
     inkscape:pagecheckerboard="false"
     inkscape:deskcolor="#d1d1d1"
     inkscape:document-units="mm"
     showgrid="false"
     inkscape:zoom="1.1893044"
     inkscape:cx="94.593108"
     inkscape:cy="153.45104"
     inkscape:window-width="1802"
     inkscape:window-height="913"
     inkscape:window-x="1983"
     inkscape:window-y="26"
     inkscape:window-maximized="0"
     inkscape:current-layer="layer2"
     showborder="false"
     borderlayer="false" />
  <defs
     id="defs2">
    <linearGradient
       inkscape:collect="always"
       id="linearGradient5323">
      <stop
         style="stop-color:#000000;stop-opacity:1;"
         offset="0"
         id="stop5319" />
      <stop
         style="stop-color:#545454;stop-opacity:1;"
         offset="0.75"
         id="stop5327" />
      <stop
         style="stop-color:#f3f3f3;stop-opacity:1;"
         offset="1"
         id="stop5321" />
    </linearGradient>
    <linearGradient
       id="linearGradient5311"
       inkscape:swatch="solid">
      <stop
         style="stop-color:#000000;stop-opacity:1;"
         offset="0"
         id="stop5309" />
    </linearGradient>
    <rect
       x="40.359726"
       y="126.96497"
       width="364.91919"
       height="55.494625"
       id="rect63" />
    <linearGradient
       inkscape:collect="always"
       xlink:href="#linearGradient5323"
       id="linearGradient6171"
       gradientUnits="userSpaceOnUse"
       x1="44.071377"
       y1="154.22887"
       x2="353.80408"
       y2="154.22887" />
    <linearGradient
       inkscape:collect="always"
       xlink:href="#linearGradient5323"
       id="linearGradient6173"
       gradientUnits="userSpaceOnUse"
       x1="44.071377"
       y1="154.22887"
       x2="353.80408"
       y2="154.22887" />
    <linearGradient
       inkscape:collect="always"
       xlink:href="#linearGradient5323"
       id="linearGradient6175"
       gradientUnits="userSpaceOnUse"
       x1="44.071377"
       y1="154.22887"
       x2="353.80408"
       y2="154.22887" />
    <linearGradient
       inkscape:collect="always"
       xlink:href="#linearGradient5323"
       id="linearGradient6177"
       gradientUnits="userSpaceOnUse"
       x1="44.071377"
       y1="154.22887"
       x2="353.80408"
       y2="154.22887" />
    <linearGradient
       inkscape:collect="always"
       xlink:href="#linearGradient5323"
       id="linearGradient6179"
       gradientUnits="userSpaceOnUse"
       x1="44.071377"
       y1="154.22887"
       x2="353.80408"
       y2="154.22887" />
    <linearGradient
       inkscape:collect="always"
       xlink:href="#linearGradient5323"
       id="linearGradient6181"
       gradientUnits="userSpaceOnUse"
       x1="44.071377"
       y1="154.22887"
       x2="353.80408"
       y2="154.22887" />
    <linearGradient
       inkscape:collect="always"
       xlink:href="#linearGradient5323"
       id="linearGradient6183"
       gradientUnits="userSpaceOnUse"
       x1="44.071377"
       y1="154.22887"
       x2="353.80408"
       y2="154.22887" />
    <linearGradient
       inkscape:collect="always"
       xlink:href="#linearGradient5323"
       id="linearGradient6185"
       gradientUnits="userSpaceOnUse"
       x1="44.071377"
       y1="154.22887"
       x2="353.80408"
       y2="154.22887" />
    <linearGradient
       inkscape:collect="always"
       xlink:href="#linearGradient5323"
       id="linearGradient6187"
       gradientUnits="userSpaceOnUse"
       x1="44.071377"
       y1="154.22887"
       x2="353.80408"
       y2="154.22887" />
    <linearGradient
       inkscape:collect="always"
       xlink:href="#linearGradient5323"
       id="linearGradient6189"
       gradientUnits="userSpaceOnUse"
       x1="44.071377"
       y1="154.22887"
       x2="353.80408"
       y2="154.22887" />
    <linearGradient
       inkscape:collect="always"
       xlink:href="#linearGradient5323"
       id="linearGradient6191"
       gradientUnits="userSpaceOnUse"
       x1="44.071377"
       y1="154.22887"
       x2="353.80408"
       y2="154.22887" />
    <linearGradient
       inkscape:collect="always"
       xlink:href="#linearGradient5323"
       id="linearGradient6193"
       gradientUnits="userSpaceOnUse"
       x1="44.071377"
       y1="154.22887"
       x2="353.80408"
       y2="154.22887" />
    <linearGradient
       inkscape:collect="always"
       xlink:href="#linearGradient5323"
       id="linearGradient6195"
       gradientUnits="userSpaceOnUse"
       x1="44.071377"
       y1="154.22887"
       x2="353.80408"
       y2="154.22887" />
    <linearGradient
       inkscape:collect="always"
       xlink:href="#linearGradient5323"
       id="linearGradient6197"
       gradientUnits="userSpaceOnUse"
       x1="44.071377"
       y1="154.22887"
       x2="353.80408"
       y2="154.22887" />
    <linearGradient
       inkscape:collect="always"
       xlink:href="#linearGradient5323"
       id="linearGradient6199"
       gradientUnits="userSpaceOnUse"
       x1="44.071377"
       y1="154.22887"
       x2="353.80408"
       y2="154.22887" />
    <linearGradient
       inkscape:collect="always"
       xlink:href="#linearGradient5323"
       id="linearGradient6201"
       gradientUnits="userSpaceOnUse"
       x1="44.071377"
       y1="154.22887"
       x2="353.80408"
       y2="154.22887" />
    <linearGradient
       inkscape:collect="always"
       xlink:href="#linearGradient5323"
       id="linearGradient6203"
       gradientUnits="userSpaceOnUse"
       x1="44.071377"
       y1="154.22887"
       x2="353.80408"
       y2="154.22887" />
    <linearGradient
       inkscape:collect="always"
       xlink:href="#linearGradient5323"
       id="linearGradient6205"
       gradientUnits="userSpaceOnUse"
       x1="44.071377"
       y1="154.22887"
       x2="353.80408"
       y2="154.22887" />
  </defs>
  <g
     inkscape:groupmode="layer"
     id="layer2"
     inkscape:label="base">
    <g
       aria-label="Follow the light..."
       transform="matrix(0.26458333,0,0,0.26458333,-11.660552,-34.981317)"
       id="text61"
       style="font-size:42.6667px;letter-spacing:-3px;white-space:pre;shape-inside:url(#rect63);display:inline;fill:url(#linearGradient6205)"
       inkscape:label="text">
      <path
         d="m 44.071378,166.43154 v -29.86669 h 7.296005 v 29.86669 z m 3.413336,-11.43468 v -6.10133 h 15.530678 v 6.10133 z m 0,-11.98934 v -6.44267 H 64.72206 v 6.44267 z"
         style="fill:url(#linearGradient6171)"
         id="path6075"
         inkscape:label="Follow f" />
      <path
         d="m 76.740603,166.85821 q -3.498669,0 -6.272005,-1.49334 -2.773335,-1.536 -4.352003,-4.18133 -1.578668,-2.68801 -1.578668,-6.05868 0,-3.456 1.578668,-6.10133 1.578668,-2.68801 4.352003,-4.18134 2.773336,-1.536 6.272005,-1.536 3.541336,0 6.272004,1.536 2.773336,1.49333 4.352004,4.18134 1.578668,2.64533 1.578668,6.10133 0,3.37067 -1.578668,6.05868 -1.578668,2.64533 -4.352004,4.18133 -2.730668,1.49334 -6.272004,1.49334 z m 0,-5.88801 q 1.536001,0 2.688002,-0.768 1.194667,-0.768 1.877335,-2.09067 0.682667,-1.32266 0.64,-2.98667 0.04267,-1.74933 -0.64,-3.072 -0.682668,-1.36533 -1.877335,-2.09067 -1.152001,-0.768 -2.688002,-0.768 -1.493335,0 -2.688002,0.768 -1.194668,0.768 -1.877335,2.09067 -0.682667,1.32267 -0.682667,3.072 0,1.66401 0.682667,2.98667 0.682667,1.32267 1.877335,2.09067 1.194667,0.768 2.688002,0.768 z"
         style="fill:url(#linearGradient6173)"
         id="path6077"
         inkscape:label="Follow o1" />
      <path
         d="m 90.423256,166.43154 v -31.57336 h 6.869339 v 31.57336 z"
         style="fill:url(#linearGradient6175)"
         id="path6079"
         inkscape:label="Follow l1" />
      <path
         d="m 100.39389,166.43154 v -31.57336 h 6.86934 v 31.57336 z"
         style="fill:url(#linearGradient6177)"
         id="path6081"
         inkscape:label="Follow l2" />
      <path
         d="m 120.56185,166.85821 q -3.49867,0 -6.272,-1.49334 -2.77334,-1.536 -4.35201,-4.18133 -1.57866,-2.68801 -1.57866,-6.05868 0,-3.456 1.57866,-6.10133 1.57867,-2.68801 4.35201,-4.18134 2.77333,-1.536 6.272,-1.536 3.54134,0 6.27201,1.536 2.77333,1.49333 4.352,4.18134 1.57867,2.64533 1.57867,6.10133 0,3.37067 -1.57867,6.05868 -1.57867,2.64533 -4.352,4.18133 -2.73067,1.49334 -6.27201,1.49334 z m 0,-5.88801 q 1.536,0 2.688,-0.768 1.19467,-0.768 1.87734,-2.09067 0.68267,-1.32266 0.64,-2.98667 0.0427,-1.74933 -0.64,-3.072 -0.68267,-1.36533 -1.87734,-2.09067 -1.152,-0.768 -2.688,-0.768 -1.49333,0 -2.688,0.768 -1.19467,0.768 -1.87733,2.09067 -0.68267,1.32267 -0.68267,3.072 0,1.66401 0.68267,2.98667 0.68266,1.32267 1.87733,2.09067 1.19467,0.768 2.688,0.768 z"
         style="fill:url(#linearGradient6179)"
         id="path6083"
         inkscape:label="Follow o2" />
      <path
         d="m 138.34049,166.43154 -7.42401,-22.65602 h 7.21068 l 4.18133,14.63468 -0.93867,-0.17067 4.69334,-11.34934 h 4.01067 l 4.992,11.39201 -1.024,0.0853 4.18134,-14.59201 h 7.21067 l -7.72267,22.65602 h -5.03467 l -4.94934,-12.11734 0.55467,0.0853 -4.864,12.03201 z"
         style="fill:url(#linearGradient6181)"
         id="path6085"
         inkscape:label="Follow w" />
      <path
         d="m 178.4631,166.43154 v -28.37335 h 6.86934 v 28.37335 z m -4.01067,-16.64001 v -6.01601 h 15.23201 v 6.01601 z"
         style="fill:url(#linearGradient6183)"
         id="path6087"
         inkscape:label="The t" />
      <path
         d="m 190.6097,166.43154 v -31.57336 h 6.78401 v 13.52535 l -1.408,0.512 q 0.46933,-1.536 1.664,-2.77334 1.23733,-1.28 2.944,-2.048 1.70667,-0.768 3.584,-0.768 2.56001,0 4.30934,1.06667 1.74933,1.024 2.60267,3.11467 0.896,2.048 0.896,5.07733 v 13.86668 h -6.86934 v -13.35468 q 0,-1.36533 -0.384,-2.26133 -0.384,-0.896 -1.152,-1.32267 -0.768,-0.42667 -1.92,-0.384 -0.896,0 -1.664,0.29867 -0.768,0.256 -1.36534,0.81066 -0.55466,0.512 -0.85333,1.19467 -0.29867,0.68267 -0.29867,1.536 v 13.48268 h -3.456 q -1.10933,0 -2.00534,0 -0.85333,0 -1.408,0 z"
         style="fill:url(#linearGradient6185)"
         id="path6089"
         inkscape:label="The h" />
      <path
         d="m 225.5404,166.85821 q -3.75467,0 -6.57068,-1.49334 -2.77333,-1.49333 -4.30933,-4.096 -1.49334,-2.64534 -1.49334,-6.01601 0,-2.64533 0.85334,-4.82133 0.85333,-2.21867 2.38933,-3.79734 1.57867,-1.57867 3.66934,-2.432 2.13333,-0.896 4.65067,-0.896 2.38933,0 4.352,0.85333 1.96267,0.85334 3.41334,2.38934 1.45066,1.536 2.21867,3.62667 0.768,2.09067 0.72533,4.56533 l -0.0427,1.87734 h -18.00534 l -1.024,-3.88267 h 13.44001 l -0.72534,0.768 v -0.85333 q -0.0853,-1.06667 -0.68267,-1.83467 -0.55466,-0.81067 -1.49333,-1.28 -0.896,-0.46934 -2.048,-0.46934 -1.70667,0 -2.90134,0.68267 -1.152,0.64 -1.74933,1.87734 -0.59734,1.23733 -0.59734,3.072 0,1.83467 0.768,3.24267 0.81067,1.408 2.30401,2.176 1.536,0.768 3.62667,0.768 1.408,0 2.56,-0.42667 1.152,-0.42666 2.47467,-1.45067 l 3.2,4.52267 q -1.32267,1.10934 -2.816,1.87734 -1.49334,0.72533 -3.07201,1.06667 -1.536,0.384 -3.11466,0.384 z"
         style="fill:url(#linearGradient6187)"
         id="path6091"
         inkscape:label="The e" />
      <path
         d="m 247.40167,166.43154 v -31.57336 h 6.86933 v 31.57336 z"
         style="fill:url(#linearGradient6189)"
         id="path6093"
         inkscape:label="Light l" />
      <path
         d="m 257.75629,166.43154 v -22.65602 h 6.86934 v 22.65602 z m 3.456,-27.13602 q -1.96266,0 -3.072,-0.896 -1.06666,-0.93867 -1.06666,-2.64534 0,-1.57866 1.10933,-2.56 1.10933,-0.98133 3.02933,-0.98133 1.87734,0 2.94401,0.93867 1.10933,0.896 1.10933,2.60266 0,1.57867 -1.10933,2.56001 -1.06667,0.98133 -2.94401,0.98133 z"
         style="fill:url(#linearGradient6191)"
         id="path6095"
         inkscape:label="Light i" />
      <path
         d="m 278.43628,176.24488 q -2.73066,0 -5.504,-0.81067 -2.73067,-0.768 -4.43734,-2.048 l 2.38934,-4.864 q 1.36533,0.93867 3.072,1.45067 1.74934,0.55466 3.62667,0.55466 2.176,0 3.54134,-0.64 1.36533,-0.64 2.00533,-1.92 0.68267,-1.28 0.68267,-3.2 v -3.75467 l 1.28,0.256 q -0.256,1.32267 -1.45067,2.47467 -1.152,1.152 -2.85867,1.83467 -1.70667,0.68266 -3.584,0.68266 -3.072,0 -5.504,-1.408 -2.43201,-1.45067 -3.84001,-3.968 -1.36533,-2.56 -1.36533,-5.88801 0,-3.41333 1.36533,-6.05867 1.408,-2.64533 3.79734,-4.13867 2.38933,-1.49333 5.376,-1.49333 1.23734,0 2.38934,0.29867 1.19467,0.256 2.176,0.768 1.024,0.512 1.792,1.152 0.81067,0.64 1.32267,1.408 0.512,0.768 0.64,1.536 l -1.408,0.42667 0.256,-5.12001 h 6.528 v 20.77869 q 0,2.77333 -0.85333,4.94933 -0.81067,2.176 -2.432,3.66934 -1.57867,1.49333 -3.84001,2.26133 -2.26133,0.81067 -5.16267,0.81067 z m 0.17067,-15.31734 q 1.664,0 2.85867,-0.72534 1.23733,-0.72533 1.87733,-2.048 0.68267,-1.32267 0.68267,-3.072 0,-1.83467 -0.68267,-3.15734 -0.64,-1.32267 -1.87733,-2.048 -1.19467,-0.768 -2.85867,-0.768 -1.57867,0 -2.77333,0.768 -1.19467,0.72533 -1.87734,2.048 -0.64,1.32267 -0.64,3.11467 0,1.792 0.64,3.11467 0.68267,1.32267 1.87734,2.048 1.19466,0.72534 2.77333,0.72534 z"
         style="fill:url(#linearGradient6193)"
         id="path6097"
         inkscape:label="Light g" />
      <path
         d="m 293.65488,166.43154 v -31.57336 h 6.78401 v 13.52535 l -1.408,0.512 q 0.46933,-1.536 1.664,-2.77334 1.23733,-1.28 2.944,-2.048 1.70667,-0.768 3.58401,-0.768 2.56,0 4.30933,1.06667 1.74934,1.024 2.60267,3.11467 0.896,2.048 0.896,5.07733 v 13.86668 h -6.86934 v -13.35468 q 0,-1.36533 -0.384,-2.26133 -0.384,-0.896 -1.152,-1.32267 -0.768,-0.42667 -1.92,-0.384 -0.896,0 -1.664,0.29867 -0.768,0.256 -1.36534,0.81066 -0.55466,0.512 -0.85333,1.19467 -0.29867,0.68267 -0.29867,1.536 v 13.48268 h -3.456 q -1.10933,0 -2.00533,0 -0.85334,0 -1.40801,0 z"
         style="fill:url(#linearGradient6195)"
         id="path6099"
         inkscape:label="Light h" />
      <path
         d="m 319.66824,166.43154 v -28.37335 h 6.86933 v 28.37335 z m -4.01067,-16.64001 v -6.01601 h 15.23201 v 6.01601 z"
         style="fill:url(#linearGradient6197)"
         id="path6101"
         inkscape:label="Light t" />
      <path
         d="m 334.24683,166.90087 q -1.74934,0 -2.73067,-0.98133 -0.93867,-1.024 -0.93867,-2.85867 0,-1.70667 0.98134,-2.77333 1.024,-1.10934 2.688,-1.10934 1.74933,0 2.73067,1.024 0.98133,0.98134 0.98133,2.85867 0,1.70667 -1.06667,2.77334 -1.024,1.06666 -2.64533,1.06666 z"
         style="fill:url(#linearGradient6199)"
         id="path6103"
         inkscape:label="dot1" />
      <path
         d="m 342.16944,166.90087 q -1.74934,0 -2.73067,-0.98133 -0.93867,-1.024 -0.93867,-2.85867 0,-1.70667 0.98133,-2.77333 1.02401,-1.10934 2.68801,-1.10934 1.74933,0 2.73067,1.024 0.98133,0.98134 0.98133,2.85867 0,1.70667 -1.06667,2.77334 -1.024,1.06666 -2.64533,1.06666 z"
         style="fill:url(#linearGradient6201)"
         id="path6105"
         inkscape:label="dot2" />
      <path
         d="m 350.09207,166.90087 q -1.74933,0 -2.73066,-0.98133 -0.93867,-1.024 -0.93867,-2.85867 0,-1.70667 0.98133,-2.77333 1.024,-1.10934 2.688,-1.10934 1.74934,0 2.73067,1.024 0.98134,0.98134 0.98134,2.85867 0,1.70667 -1.06667,2.77334 -1.024,1.06666 -2.64534,1.06666 z"
         style="fill:url(#linearGradient6203)"
         id="path6107"
         inkscape:label="dot3" />
    </g>
  </g>
  <metadata
     id="metadata6207">
    <rdf:RDF>
      <cc:License
         rdf:about="http://creativecommons.org/licenses/by-nc-nd/4.0/">
        <cc:permits
           rdf:resource="http://creativecommons.org/ns#Reproduction" />
        <cc:permits
           rdf:resource="http://creativecommons.org/ns#Distribution" />
        <cc:requires
           rdf:resource="http://creativecommons.org/ns#Notice" />
        <cc:requires
           rdf:resource="http://creativecommons.org/ns#Attribution" />
        <cc:prohibits
           rdf:resource="http://creativecommons.org/ns#CommercialUse" />
      </cc:License>
      <cc:Work
         rdf:about="">
        <cc:license
           rdf:resource="http://creativecommons.org/licenses/by-nc-nd/4.0/" />
        <dc:title>Logo Follow the Light</dc:title>
        <dc:creator>
          <cc:Agent>
            <dc:title>z720</dc:title>
          </cc:Agent>
        </dc:creator>
      </cc:Work>
    </rdf:RDF>
  </metadata>
</svg>
